<svg xmlns="http://www.w3.org/2000/svg" width="80" height="80" viewBox="0 0 80 80">
    <g fill="none" fill-rule="nonzero">
        <path fill="#FBAB03" d="M47.291 65.775H32.637l2.498-5.33L37.3 55.45h5.329l2.164 4.996zM56.616 65.775H23.312a3.34 3.34 0 0 0-3.33 3.33v10.823H59.78V69.105c.166-1.832-1.332-3.33-3.164-3.33z"/>
        <path fill="#F94670" d="M44.793 60.446c-1.332.666-2.664 1.332-3.996 1.832l-.833.166-.832-.333c-1.332-.5-2.665-1.166-3.997-1.832l2.165-4.995h5.162l2.331 5.162z"/>
        <path fill="#F94670" d="M0 9.158v6.828c0 16.651 10.324 30.972 24.811 36.967 4.663 1.998 9.825 2.997 15.153 2.997 5.329 0 10.491-1 15.153-2.997C69.604 46.958 79.93 32.637 79.93 15.986V9.158H0zm73.268 6.828c0 7.992-2.831 15.32-7.66 21.147-6.161 7.327-15.32 12.156-25.644 12.156-10.324 0-19.482-4.662-25.643-12.156-4.663-5.661-7.66-13.155-7.66-21.147v-.167H73.1v.167h.167z"/>
        <path fill="#FBAB03" d="M65.941 0H13.987c-1.165 0-1.998.999-1.998 1.998 0 1.166.833 2.165 1.998 2.165h51.954c1.166 0 1.998-.999 1.998-1.998C67.94.999 67.107 0 65.941 0zM65.941 4.163v17.984c0 16.652-10.324 31.805-25.977 37.8-15.652-6.162-25.976-21.148-25.976-37.967V4.163H65.94z"/>
        <path fill="#FFF" d="M40 33.774l6.79 3.99c1.243.731 2.765-.35 2.438-1.717l-1.8-7.503 6.004-5.055c1.097-.922.508-2.67-.932-2.782l-7.903-.651-3.092-7.09c-.556-1.288-2.454-1.288-3.01 0l-3.092 7.074-7.903.651c-1.44.112-2.029 1.86-.932 2.782l6.004 5.055-1.8 7.504c-.327 1.367 1.195 2.448 2.438 1.716L40 33.774z"/>
        <path fill="#FBAB03" d="M13.987 4.163h51.787v2.498H13.987z"/>
    </g>
</svg>
